<svg width="40" height="40" viewBox="0 0 40 40" fill="none" xmlns="http://www.w3.org/2000/svg">
<path d="M20 40C31.0457 40 40 31.0457 40 20C40 8.9543 31.0457 0 20 0C8.9543 0 0 8.9543 0 20C0 31.0457 8.9543 40 20 40Z" fill="#2787F5"/>
<path d="M22.884 10.6055H17.116C11.852 10.6055 10.6055 11.852 10.6055 17.116V22.884C10.6055 28.148 11.852 29.3945 17.116 29.3945H22.884C28.148 29.3945 29.3945 28.148 29.3945 22.884V17.116C29.3945 11.852 28.1348 10.6055 22.884 10.6055ZM25.7746 24.0109H24.4074C23.8902 24.0109 23.7313 23.6 22.8031 22.6586C21.9941 21.8773 21.6363 21.7703 21.4359 21.7703C21.1574 21.7703 21.0777 21.8484 21.0777 22.2344V23.4676C21.0777 23.7992 20.9715 23.998 20.0965 23.998C18.6512 23.998 17.0469 23.123 15.9195 21.4918C14.2223 19.1051 13.7582 17.3148 13.7582 16.9438C13.7582 16.7449 13.8363 16.5594 14.2223 16.5594H15.5895C15.9344 16.5594 16.0668 16.7184 16.1992 17.0898C16.8754 19.0391 18.0027 20.7496 18.4648 20.7496C18.6371 20.7496 18.7168 20.6715 18.7168 20.2324V18.2168C18.6637 17.2887 18.173 17.209 18.173 16.8777C18.173 16.7188 18.3055 16.5594 18.518 16.5594H20.6664C20.9582 16.5594 21.0641 16.7184 21.0641 17.0633V19.7812C21.0641 20.073 21.1965 20.1789 21.2762 20.1789C21.4484 20.1789 21.5945 20.0727 21.9125 19.7547C22.8938 18.6543 23.5965 16.957 23.5965 16.957C23.6895 16.7582 23.8484 16.5727 24.1934 16.5727H25.5605C25.9715 16.5727 26.0645 16.7848 25.9715 17.0766C25.7992 17.8723 24.1285 20.2324 24.1285 20.2324C23.9828 20.4711 23.9297 20.5773 24.1285 20.8422C24.2742 21.041 24.7535 21.452 25.0699 21.8234C25.6535 22.4875 26.1043 23.0434 26.2234 23.4277C26.3582 23.8121 26.159 24.0109 25.7746 24.0109Z" fill="white"/>
</svg>
