<svg width="40" height="30" viewBox="0 0 40 30" fill="none" xmlns="http://www.w3.org/2000/svg">
<path fill-rule="evenodd" clip-rule="evenodd" d="M15.87 20.225L15.8687 8.90646L26.6763 14.5852L15.87 20.225ZM39.6 6.94515C39.6 6.94515 39.2087 4.16935 38.01 2.94699C36.4888 1.34194 34.7837 1.33437 34.0025 1.24121C28.405 0.833338 20.0087 0.833344 20.0087 0.833344H19.9913C19.9913 0.833344 11.595 0.833338 5.99751 1.24121C5.215 1.33437 3.51125 1.34194 1.98875 2.94699C0.790004 4.16935 0.399996 6.94515 0.399996 6.94515C0.399996 6.94515 0 10.2056 0 13.4648V16.5214C0 19.7818 0.399996 23.041 0.399996 23.041C0.399996 23.041 0.790004 25.8168 1.98875 27.0392C3.51125 28.6443 5.50999 28.5939 6.39999 28.7613C9.59999 29.071 20 29.1667 20 29.1667C20 29.1667 28.405 29.1541 34.0025 28.7462C34.7837 28.6518 36.4888 28.6443 38.01 27.0392C39.2087 25.8168 39.6 23.041 39.6 23.041C39.6 23.041 40 19.7818 40 16.5214V13.4648C40 10.2056 39.6 6.94515 39.6 6.94515Z" fill="#CE1312"/>
</svg>
